<?xml version="1.0" encoding="UTF-8"?>
<svg xmlns="http://www.w3.org/2000/svg" xmlns:xlink="http://www.w3.org/1999/xlink" width="50pt" height="50pt" viewBox="0 0 50 50" version="1.1">
<defs>
<linearGradient id="linear0" gradientUnits="userSpaceOnUse" x1="-825.508" y1="1338.301" x2="-825.508" y2="1419.102" gradientTransform="matrix(0.092836,0,0,-0.092836,97.099988,153.992646)">
<stop offset="0.387" style="stop-color:rgb(81.960784%,82.745098%,83.137255%);stop-opacity:0;"/>
<stop offset="1" style="stop-color:rgb(81.960784%,82.745098%,83.137255%);stop-opacity:1;"/>
</linearGradient>
<linearGradient id="linear1" gradientUnits="userSpaceOnUse" x1="-724.552" y1="1378.602" x2="-724.552" y2="1462.591" gradientTransform="matrix(0.092836,0,0,-0.092836,97.099988,153.992646)">
<stop offset="0.387" style="stop-color:rgb(81.960784%,82.745098%,83.137255%);stop-opacity:0;"/>
<stop offset="1" style="stop-color:rgb(81.960784%,82.745098%,83.137255%);stop-opacity:1;"/>
</linearGradient>
<linearGradient id="linear2" gradientUnits="userSpaceOnUse" x1="-874.103" y1="1302.263" x2="-680.039" y2="1302.263" gradientTransform="matrix(0.092836,0,0,-0.092836,97.099988,153.992646)">
<stop offset="0" style="stop-color:rgb(90.980392%,90.588235%,89.803922%);stop-opacity:1;"/>
<stop offset="1" style="stop-color:rgb(100%,100%,100%);stop-opacity:1;"/>
</linearGradient>
<filter id="alpha" filterUnits="objectBoundingBox" x="0%" y="0%" width="100%" height="100%">
  <feColorMatrix type="matrix" in="SourceGraphic" values="0 0 0 0 1 0 0 0 0 1 0 0 0 0 1 0 0 0 1 0"/>
</filter>
<mask id="mask0">
  <g filter="url(#alpha)">
<rect x="0" y="0" width="50" height="50" style="fill:rgb(0%,0%,0%);fill-opacity:0.0509804;stroke:none;"/>
  </g>
</mask>
<clipPath id="clip1">
  <rect x="0" y="0" width="50" height="50"/>
</clipPath>
<g id="surface5" clip-path="url(#clip1)">
<path style=" stroke:none;fill-rule:nonzero;fill:rgb(0%,0%,0%);fill-opacity:1;" d="M 24.988281 26.019531 L 15.9375 26.019531 L 16.238281 29.75 L 24.988281 29.777344 Z M 24.988281 36 L 24.945312 36.011719 L 20.699219 34.941406 L 20.441406 31.851562 L 16.496094 31.851562 L 17.011719 37.8125 L 24.988281 40.171875 Z M 24.988281 36 "/>
</g>
<linearGradient id="linear3" gradientUnits="userSpaceOnUse" x1="-883.032" y1="1442.031" x2="-672.341" y2="1442.031" gradientTransform="matrix(0.092836,0,0,-0.092836,97.099988,153.992646)">
<stop offset="0" style="stop-color:rgb(90.980392%,90.588235%,89.803922%);stop-opacity:1;"/>
<stop offset="1" style="stop-color:rgb(100%,100%,100%);stop-opacity:1;"/>
</linearGradient>
<mask id="mask1">
  <g filter="url(#alpha)">
<rect x="0" y="0" width="50" height="50" style="fill:rgb(0%,0%,0%);fill-opacity:0.0509804;stroke:none;"/>
  </g>
</mask>
<clipPath id="clip2">
  <rect x="0" y="0" width="50" height="50"/>
</clipPath>
<g id="surface8" clip-path="url(#clip2)">
<path style=" stroke:none;fill-rule:nonzero;fill:rgb(0%,0%,0%);fill-opacity:1;" d="M 24.988281 18.210938 L 15.121094 18.210938 L 15.59375 22.027344 L 24.988281 22.027344 Z M 24.988281 18.210938 "/>
</g>
</defs>
<g id="surface1">
<path style=" stroke:none;fill-rule:nonzero;fill:rgb(12.54902%,38.431373%,68.627451%);fill-opacity:1;" d="M 37.644531 43.398438 L 25 46.800781 L 12.355469 43.398438 L 9.4375 11.785156 L 40.5625 11.785156 Z M 37.644531 43.398438 "/>
<path style=" stroke:none;fill-rule:nonzero;fill:rgb(23.529412%,61.176471%,84.313725%);fill-opacity:1;" d="M 25 14.34375 L 25 44.085938 L 25.027344 44.09375 L 35.261719 41.339844 L 37.625 14.34375 Z M 25 14.34375 "/>
<path style=" stroke:none;fill-rule:nonzero;fill:rgb(0%,0%,0%);fill-opacity:1;" d="M 17.824219 7.140625 L 17.824219 5.257812 L 20.570312 5.257812 L 20.570312 3.199219 L 15.765625 3.199219 L 15.765625 9.019531 L 20.570312 9.019531 L 20.570312 7.140625 Z M 25.507812 5.257812 L 27.425781 5.257812 L 27.425781 3.199219 L 22.621094 3.199219 L 22.621094 5.257812 C 23.265625 5.898438 23.597656 6.207031 24.527344 7.136719 C 23.984375 7.136719 22.621094 7.140625 22.621094 7.140625 L 22.621094 9.019531 L 27.425781 9.019531 L 27.425781 7.140625 Z M 32.316406 5.257812 L 34.234375 5.257812 L 34.234375 3.199219 L 29.429688 3.199219 L 29.429688 5.257812 C 30.074219 5.898438 30.410156 6.207031 31.339844 7.136719 C 30.796875 7.136719 29.429688 7.140625 29.429688 7.140625 L 29.429688 9.019531 L 34.234375 9.019531 L 34.234375 7.140625 Z M 32.316406 5.257812 "/>
<path style=" stroke:none;fill-rule:nonzero;fill:rgb(100%,100%,100%);fill-opacity:1;" d="M 24.988281 22.25 L 15.9375 26.019531 L 16.238281 29.75 L 24.988281 26.007812 L 34.296875 22.027344 L 34.683594 18.210938 Z M 24.988281 22.25 "/>
<path style=" stroke:none;fill-rule:nonzero;fill:url(#linear0);" d="M 15.9375 26.019531 L 16.238281 29.75 L 24.988281 26.007812 L 24.988281 22.25 Z M 15.9375 26.019531 "/>
<path style=" stroke:none;fill-rule:nonzero;fill:url(#linear1);" d="M 34.683594 18.210938 L 24.988281 22.25 L 24.988281 26.007812 L 34.296875 22.027344 Z M 34.683594 18.210938 "/>
<path style=" stroke:none;fill-rule:nonzero;fill:url(#linear2);" d="M 15.953125 26.019531 L 16.253906 29.75 L 29.679688 29.792969 L 29.378906 34.769531 L 24.960938 36.011719 L 20.714844 34.941406 L 20.457031 31.851562 L 16.507812 31.851562 L 17.023438 37.8125 L 25.003906 40.171875 L 32.9375 37.855469 L 33.96875 26.019531 Z M 15.953125 26.019531 "/>
<use xlink:href="#surface5" mask="url(#mask0)"/>
<path style=" stroke:none;fill-rule:nonzero;fill:url(#linear3);" d="M 15.121094 18.210938 L 34.683594 18.210938 L 34.296875 22.027344 L 15.59375 22.027344 Z M 15.121094 18.210938 "/>
<use xlink:href="#surface8" mask="url(#mask1)"/>
</g>
</svg>
