<?xml version="1.0" encoding="UTF-8"?>
<svg xmlns="http://www.w3.org/2000/svg" xmlns:xlink="http://www.w3.org/1999/xlink" width="50pt" height="50pt" viewBox="0 0 50 50" version="1.1">
<g id="surface1">
<path style=" stroke:none;fill-rule:nonzero;fill:rgb(0%,0%,0%);fill-opacity:1;" d="M 41.039062 0 L 9.007812 0 C 6.25 0 4.003906 2.246094 4.003906 5.003906 L 4.003906 45.042969 C 4.003906 47.800781 6.25 50.046875 9.007812 50.046875 L 41.039062 50.046875 C 43.796875 50.046875 46.042969 47.800781 46.042969 45.042969 L 46.042969 5.003906 C 46.042969 2.246094 43.800781 0 41.039062 0 Z M 44.042969 45.042969 C 44.042969 46.699219 42.695312 48.046875 41.039062 48.046875 L 9.007812 48.046875 C 7.351562 48.046875 6.007812 46.699219 6.007812 45.042969 L 6.007812 5.003906 C 6.007812 3.351562 7.351562 2.003906 9.007812 2.003906 L 41.039062 2.003906 C 42.691406 2.003906 44.039062 3.351562 44.039062 5.003906 L 44.039062 45.042969 Z M 44.042969 45.042969 "/>
<path style=" stroke:none;fill-rule:nonzero;fill:rgb(0%,0%,0%);fill-opacity:1;" d="M 35.578125 21.882812 L 14.472656 21.882812 C 13.960938 21.882812 13.550781 22.292969 13.550781 22.800781 C 13.550781 23.308594 13.960938 23.722656 14.472656 23.722656 L 35.578125 23.722656 C 36.085938 23.722656 36.496094 23.308594 36.496094 22.800781 C 36.496094 22.292969 36.085938 21.882812 35.578125 21.882812 Z M 35.578125 21.882812 "/>
<path style=" stroke:none;fill-rule:nonzero;fill:rgb(0%,0%,0%);fill-opacity:1;" d="M 35.578125 26.074219 L 14.472656 26.074219 C 13.960938 26.074219 13.550781 26.484375 13.550781 26.996094 C 13.550781 27.503906 13.960938 27.914062 14.472656 27.914062 L 35.578125 27.914062 C 36.085938 27.914062 36.496094 27.503906 36.496094 26.996094 C 36.496094 26.484375 36.085938 26.074219 35.578125 26.074219 Z M 35.578125 26.074219 "/>
<path style=" stroke:none;fill-rule:nonzero;fill:rgb(0%,0%,0%);fill-opacity:1;" d="M 35.578125 30.265625 L 14.472656 30.265625 C 13.960938 30.265625 13.550781 30.675781 13.550781 31.183594 C 13.550781 31.691406 13.960938 32.101562 14.472656 32.101562 L 35.578125 32.101562 C 36.085938 32.101562 36.496094 31.691406 36.496094 31.183594 C 36.496094 30.675781 36.085938 30.265625 35.578125 30.265625 Z M 35.578125 30.265625 "/>
<path style=" stroke:none;fill-rule:nonzero;fill:rgb(0%,0%,0%);fill-opacity:1;" d="M 35.578125 34.457031 L 25.023438 34.457031 C 24.515625 34.457031 24.105469 34.867188 24.105469 35.375 C 24.105469 35.882812 24.515625 36.296875 25.023438 36.296875 L 35.578125 36.296875 C 36.085938 36.296875 36.496094 35.882812 36.496094 35.375 C 36.496094 34.867188 36.085938 34.457031 35.578125 34.457031 Z M 35.578125 34.457031 "/>
<path style=" stroke:none;fill-rule:nonzero;fill:rgb(0%,0%,0%);fill-opacity:1;" d="M 35.578125 42.734375 L 28.1875 42.734375 C 27.679688 42.734375 27.269531 43.144531 27.269531 43.652344 C 27.269531 44.160156 27.679688 44.570312 28.1875 44.570312 L 35.578125 44.570312 C 36.085938 44.570312 36.496094 44.160156 36.496094 43.652344 C 36.496094 43.144531 36.085938 42.734375 35.578125 42.734375 Z M 35.578125 42.734375 "/>
<path style=" stroke:none;fill-rule:nonzero;fill:rgb(0%,0%,0%);fill-opacity:1;" d="M 26.046875 17.839844 C 26.046875 16.101562 24.046875 13.753906 21.339844 13.070312 C 22.472656 12.308594 23.25 10.808594 23.25 9.457031 C 23.25 7.550781 21.707031 6.003906 19.800781 6.003906 C 17.894531 6.003906 16.347656 7.550781 16.347656 9.457031 C 16.347656 10.808594 17.128906 12.308594 18.253906 13.070312 C 15.554688 13.753906 13.550781 16.101562 13.550781 17.839844 C 13.550781 19.894531 26.046875 19.894531 26.046875 17.839844 Z M 19.519531 14.070312 L 19.503906 14.070312 L 18.933594 13.414062 C 19.214844 13.511719 19.5 13.574219 19.800781 13.574219 C 20.101562 13.574219 20.386719 13.515625 20.664062 13.414062 L 20.09375 14.070312 L 20.078125 14.070312 L 21.554688 17.632812 L 19.800781 19.382812 L 18.046875 17.632812 Z M 19.519531 14.070312 "/>
</g>
</svg>
