<?xml version="1.0" encoding="UTF-8"?>
<svg xmlns="http://www.w3.org/2000/svg" xmlns:xlink="http://www.w3.org/1999/xlink" width="50pt" height="50pt" viewBox="0 0 50 50" version="1.1">
<g id="surface1">
<path style="fill-rule:nonzero;fill:rgb(41.568627%,33.72549%,52.941176%);fill-opacity:1;stroke-width:0.471487;stroke-linecap:butt;stroke-linejoin:miter;stroke:rgb(41.568627%,33.72549%,52.941176%);stroke-opacity:1;stroke-miterlimit:4;" d="M 7.05 19.635 C 6.765 18.39 7.035 17.03 7.82 16.015 C 8.81 14.645 10.62 14.03 12.26 14.28 C 13.885 14.55 15.31 15.81 15.73 17.41 C 16.11 18.65 15.985 20.065 15.255 21.155 C 14.58 22.255 13.39 22.975 12.125 23.155 C 10.83 23.4 9.455 23.01 8.475 22.14 C 7.725 21.5 7.24 20.595 7.05 19.635 Z M 7.05 19.635 " transform="matrix(0.78125,0,0,0.78125,0,0)"/>
<path style=" stroke:none;fill-rule:nonzero;fill:rgb(92.156863%,44.705882%,22.352941%);fill-opacity:1;" d="M 31.554688 9.46875 C 31.054688 9.617188 31.808594 10.066406 31.855469 10.359375 C 31.996094 10.648438 32.289062 10.851562 32.53125 11.0625 C 32.960938 11.390625 33.371094 11.757812 33.890625 11.941406 C 34.605469 12.433594 34.984375 13.105469 35.171875 14.386719 C 34.273438 14.171875 33.59375 14.109375 32.066406 13.140625 C 33.65625 14.472656 34.636719 15.050781 35.226562 15.578125 C 35.792969 16.191406 36.820312 17.234375 37.800781 18.78125 C 37.804688 16.773438 36.960938 14.304688 35.871094 12.621094 C 34.847656 11.265625 33.4375 10.21875 31.890625 9.53125 C 31.785156 9.492188 31.671875 9.460938 31.554688 9.46875 Z M 31.554688 9.46875 "/>
<path style="fill-rule:nonzero;fill:rgb(41.568627%,33.72549%,52.941176%);fill-opacity:1;stroke-width:0.430523;stroke-linecap:butt;stroke-linejoin:miter;stroke:rgb(41.568627%,33.72549%,52.941176%);stroke-opacity:1;stroke-miterlimit:4;" d="M 13.405 31.065 C 13.185 30.12 13.39 29.09 13.985 28.32 C 14.735 27.285 16.105 26.815 17.345 27.005 C 18.58 27.21 19.66 28.165 19.98 29.375 C 20.265 30.315 20.17 31.385 19.615 32.215 C 19.11 33.045 18.205 33.59 17.245 33.73 C 16.27 33.91 15.225 33.615 14.48 32.955 C 13.91 32.475 13.55 31.79 13.405 31.065 Z M 13.405 31.065 " transform="matrix(0.78125,0,0,0.78125,0,0)"/>
<path style="fill-rule:nonzero;fill:rgb(92.156863%,44.705882%,22.352941%);fill-opacity:1;stroke-width:0.410009;stroke-linecap:butt;stroke-linejoin:miter;stroke:rgb(92.156863%,44.705882%,22.352941%);stroke-opacity:1;stroke-miterlimit:4;" d="M 49.535 36.57 C 49.035 36.385 48.465 36.42 48 36.685 C 47.385 37.015 47.03 37.725 47.045 38.415 C 47.065 39.095 47.5 39.75 48.135 40.015 C 48.625 40.24 49.21 40.265 49.7 40.025 C 50.19 39.81 50.55 39.36 50.695 38.85 C 50.865 38.335 50.785 37.745 50.48 37.295 C 50.26 36.95 49.915 36.705 49.535 36.57 Z M 49.535 36.57 " transform="matrix(0.78125,0,0,0.78125,0,0)"/>
<path style="fill-rule:nonzero;fill:rgb(92.156863%,44.705882%,22.352941%);fill-opacity:1;stroke-width:0.410009;stroke-linecap:butt;stroke-linejoin:miter;stroke:rgb(92.156863%,44.705882%,22.352941%);stroke-opacity:1;stroke-miterlimit:4;" d="M 47.81 42.95 C 47.395 42.795 46.92 42.825 46.54 43.045 C 46.025 43.32 45.735 43.91 45.745 44.48 C 45.76 45.045 46.12 45.59 46.65 45.805 C 47.055 45.99 47.54 46.015 47.945 45.815 C 48.355 45.64 48.65 45.265 48.775 44.84 C 48.915 44.415 48.845 43.925 48.595 43.55 C 48.415 43.265 48.125 43.06 47.81 42.95 Z M 47.81 42.95 " transform="matrix(0.78125,0,0,0.78125,0,0)"/>
<path style="fill-rule:nonzero;fill:rgb(41.568627%,33.72549%,52.941176%);fill-opacity:1;stroke-width:0.313477;stroke-linecap:butt;stroke-linejoin:miter;stroke:rgb(41.568627%,33.72549%,52.941176%);stroke-opacity:1;stroke-miterlimit:4;" d="M 18.81 40.715 C 18.655 40.025 18.805 39.275 19.235 38.715 C 19.78 37.96 20.78 37.62 21.685 37.76 C 22.58 37.91 23.365 38.6 23.6 39.485 C 23.81 40.17 23.74 40.95 23.335 41.55 C 22.965 42.16 22.31 42.555 21.61 42.655 C 20.895 42.79 20.14 42.575 19.595 42.095 C 19.18 41.74 18.915 41.24 18.81 40.715 Z M 18.81 40.715 " transform="matrix(0.78125,0,0,0.78125,0,0)"/>
<path style=" stroke:none;fill-rule:nonzero;fill:rgb(41.568627%,33.72549%,52.941176%);fill-opacity:1;" d="M 1.367188 40.046875 L 5.621094 40.046875 L 5.621094 41.238281 L 2.941406 41.238281 L 2.941406 42.378906 L 5.460938 42.378906 L 5.460938 43.570312 L 2.941406 43.570312 L 2.941406 46.160156 L 1.367188 46.160156 L 1.367188 40.046875 "/>
<path style=" stroke:none;fill-rule:nonzero;fill:rgb(41.568627%,33.72549%,52.941176%);fill-opacity:1;" d="M 9.898438 42.824219 C 9.769531 42.765625 9.640625 42.722656 9.511719 42.695312 C 9.386719 42.664062 9.261719 42.648438 9.132812 42.648438 C 8.757812 42.648438 8.464844 42.769531 8.261719 43.011719 C 8.058594 43.253906 7.957031 43.597656 7.957031 44.046875 L 7.957031 46.160156 L 6.492188 46.160156 L 6.492188 41.574219 L 7.957031 41.574219 L 7.957031 42.328125 C 8.144531 42.027344 8.363281 41.808594 8.605469 41.675781 C 8.851562 41.535156 9.144531 41.464844 9.484375 41.464844 C 9.535156 41.464844 9.585938 41.46875 9.644531 41.472656 C 9.703125 41.476562 9.785156 41.484375 9.894531 41.496094 L 9.898438 42.824219 "/>
<path style=" stroke:none;fill-rule:nonzero;fill:rgb(41.568627%,33.72549%,52.941176%);fill-opacity:1;" d="M 12.691406 44.097656 C 12.386719 44.097656 12.15625 44.148438 12 44.253906 C 11.847656 44.355469 11.769531 44.511719 11.769531 44.710938 C 11.769531 44.898438 11.832031 45.042969 11.953125 45.148438 C 12.078125 45.253906 12.253906 45.304688 12.472656 45.304688 C 12.75 45.304688 12.980469 45.207031 13.171875 45.011719 C 13.359375 44.8125 13.453125 44.5625 13.453125 44.265625 L 13.453125 44.097656 L 12.691406 44.097656 M 14.929688 43.546875 L 14.929688 46.160156 L 13.453125 46.160156 L 13.453125 45.480469 C 13.257812 45.761719 13.035156 45.964844 12.789062 46.09375 C 12.542969 46.21875 12.246094 46.28125 11.894531 46.28125 C 11.417969 46.28125 11.03125 46.140625 10.734375 45.867188 C 10.4375 45.589844 10.292969 45.226562 10.292969 44.785156 C 10.292969 44.25 10.476562 43.855469 10.84375 43.601562 C 11.214844 43.351562 11.796875 43.226562 12.589844 43.226562 L 13.453125 43.226562 L 13.453125 43.109375 C 13.453125 42.878906 13.359375 42.710938 13.179688 42.601562 C 12.996094 42.496094 12.710938 42.441406 12.324219 42.441406 C 12.007812 42.441406 11.714844 42.472656 11.445312 42.535156 C 11.175781 42.597656 10.925781 42.691406 10.691406 42.816406 L 10.691406 41.699219 C 11.007812 41.621094 11.320312 41.566406 11.640625 41.527344 C 11.957031 41.484375 12.273438 41.464844 12.589844 41.464844 C 13.414062 41.464844 14.011719 41.628906 14.378906 41.957031 C 14.746094 42.28125 14.929688 42.8125 14.929688 43.546875 "/>
<path style=" stroke:none;fill-rule:nonzero;fill:rgb(41.568627%,33.72549%,52.941176%);fill-opacity:1;" d="M 20.550781 42.335938 C 20.738281 42.054688 20.957031 41.835938 21.210938 41.691406 C 21.46875 41.539062 21.75 41.464844 22.054688 41.464844 C 22.582031 41.464844 22.984375 41.628906 23.257812 41.953125 C 23.535156 42.277344 23.671875 42.75 23.671875 43.367188 L 23.671875 46.160156 L 22.199219 46.160156 L 22.199219 43.769531 C 22.203125 43.734375 22.203125 43.699219 22.203125 43.660156 C 22.207031 43.621094 22.207031 43.566406 22.207031 43.496094 C 22.207031 43.171875 22.160156 42.9375 22.0625 42.792969 C 21.96875 42.644531 21.8125 42.570312 21.601562 42.570312 C 21.324219 42.570312 21.105469 42.683594 20.953125 42.914062 C 20.804688 43.144531 20.726562 43.476562 20.71875 43.910156 L 20.71875 46.160156 L 19.246094 46.160156 L 19.246094 43.769531 C 19.246094 43.261719 19.203125 42.9375 19.117188 42.792969 C 19.027344 42.644531 18.871094 42.570312 18.648438 42.570312 C 18.367188 42.570312 18.152344 42.6875 17.996094 42.917969 C 17.84375 43.148438 17.769531 43.476562 17.769531 43.90625 L 17.769531 46.160156 L 16.292969 46.160156 L 16.292969 41.574219 L 17.769531 41.574219 L 17.769531 42.246094 C 17.949219 41.988281 18.15625 41.792969 18.386719 41.660156 C 18.621094 41.53125 18.878906 41.464844 19.160156 41.464844 C 19.476562 41.464844 19.757812 41.542969 20 41.695312 C 20.242188 41.847656 20.425781 42.0625 20.550781 42.335938 "/>
<path style=" stroke:none;fill-rule:nonzero;fill:rgb(41.568627%,33.72549%,52.941176%);fill-opacity:1;" d="M 27.105469 44.097656 C 26.796875 44.097656 26.566406 44.148438 26.410156 44.253906 C 26.257812 44.355469 26.183594 44.511719 26.183594 44.710938 C 26.183594 44.898438 26.246094 45.042969 26.367188 45.148438 C 26.492188 45.253906 26.664062 45.304688 26.886719 45.304688 C 27.164062 45.304688 27.394531 45.207031 27.582031 45.011719 C 27.769531 44.8125 27.867188 44.5625 27.867188 44.265625 L 27.867188 44.097656 L 27.105469 44.097656 M 29.34375 43.546875 L 29.34375 46.160156 L 27.867188 46.160156 L 27.867188 45.480469 C 27.667969 45.761719 27.449219 45.964844 27.203125 46.09375 C 26.957031 46.21875 26.65625 46.28125 26.304688 46.28125 C 25.832031 46.28125 25.445312 46.140625 25.148438 45.867188 C 24.851562 45.589844 24.703125 45.226562 24.703125 44.785156 C 24.703125 44.25 24.890625 43.855469 25.257812 43.601562 C 25.628906 43.351562 26.210938 43.226562 27 43.226562 L 27.867188 43.226562 L 27.867188 43.109375 C 27.867188 42.878906 27.773438 42.710938 27.589844 42.601562 C 27.410156 42.496094 27.125 42.441406 26.734375 42.441406 C 26.421875 42.441406 26.128906 42.472656 25.859375 42.535156 C 25.589844 42.597656 25.335938 42.691406 25.105469 42.816406 L 25.105469 41.699219 C 25.417969 41.621094 25.734375 41.566406 26.050781 41.527344 C 26.367188 41.484375 26.683594 41.464844 27 41.464844 C 27.828125 41.464844 28.425781 41.628906 28.789062 41.957031 C 29.160156 42.28125 29.34375 42.8125 29.34375 43.546875 "/>
<path style=" stroke:none;fill-rule:nonzero;fill:rgb(92.156863%,44.705882%,22.352941%);fill-opacity:1;" d="M 34.296875 41.71875 L 34.296875 42.832031 C 33.984375 42.703125 33.679688 42.601562 33.390625 42.539062 C 33.097656 42.472656 32.820312 42.441406 32.5625 42.441406 C 32.285156 42.441406 32.078125 42.476562 31.941406 42.546875 C 31.804688 42.613281 31.738281 42.722656 31.738281 42.867188 C 31.738281 42.984375 31.789062 43.074219 31.890625 43.136719 C 31.996094 43.199219 32.179688 43.246094 32.445312 43.273438 L 32.703125 43.3125 C 33.453125 43.40625 33.957031 43.5625 34.214844 43.78125 C 34.476562 44 34.605469 44.34375 34.605469 44.808594 C 34.605469 45.300781 34.425781 45.667969 34.066406 45.910156 C 33.703125 46.15625 33.167969 46.28125 32.453125 46.28125 C 32.148438 46.28125 31.835938 46.253906 31.511719 46.207031 C 31.1875 46.160156 30.855469 46.089844 30.515625 45.992188 L 30.515625 44.878906 C 30.808594 45.023438 31.105469 45.128906 31.410156 45.199219 C 31.71875 45.269531 32.03125 45.304688 32.347656 45.304688 C 32.636719 45.304688 32.851562 45.265625 32.996094 45.1875 C 33.140625 45.109375 33.214844 44.992188 33.214844 44.835938 C 33.214844 44.703125 33.164062 44.605469 33.0625 44.542969 C 32.964844 44.480469 32.765625 44.429688 32.46875 44.394531 L 32.210938 44.359375 C 31.558594 44.277344 31.101562 44.125 30.839844 43.90625 C 30.578125 43.683594 30.445312 43.347656 30.445312 42.898438 C 30.445312 42.414062 30.613281 42.050781 30.945312 41.816406 C 31.277344 41.582031 31.789062 41.464844 32.476562 41.464844 C 32.746094 41.464844 33.03125 41.484375 33.328125 41.527344 C 33.625 41.566406 33.949219 41.632812 34.296875 41.71875 "/>
<path style=" stroke:none;fill-rule:nonzero;fill:rgb(92.156863%,44.705882%,22.352941%);fill-opacity:1;" d="M 37.894531 42.511719 C 37.570312 42.511719 37.320312 42.628906 37.148438 42.867188 C 36.980469 43.097656 36.894531 43.433594 36.894531 43.871094 C 36.894531 44.3125 36.980469 44.648438 37.148438 44.882812 C 37.320312 45.117188 37.570312 45.230469 37.894531 45.230469 C 38.210938 45.230469 38.457031 45.117188 38.625 44.882812 C 38.796875 44.648438 38.878906 44.3125 38.878906 43.871094 C 38.878906 43.433594 38.796875 43.097656 38.625 42.867188 C 38.457031 42.628906 38.210938 42.511719 37.894531 42.511719 M 37.894531 41.464844 C 38.683594 41.464844 39.296875 41.679688 39.738281 42.105469 C 40.183594 42.53125 40.40625 43.121094 40.40625 43.871094 C 40.40625 44.625 40.183594 45.214844 39.738281 45.640625 C 39.296875 46.066406 38.683594 46.28125 37.894531 46.28125 C 37.101562 46.28125 36.480469 46.066406 36.035156 45.640625 C 35.589844 45.214844 35.367188 44.625 35.367188 43.871094 C 35.367188 43.121094 35.589844 42.53125 36.035156 42.105469 C 36.480469 41.679688 37.101562 41.464844 37.894531 41.464844 "/>
<path style=" stroke:none;fill-rule:nonzero;fill:rgb(92.156863%,44.705882%,22.352941%);fill-opacity:1;" d="M 44.492188 39.789062 L 44.492188 40.753906 L 43.683594 40.753906 C 43.476562 40.753906 43.332031 40.789062 43.25 40.867188 C 43.167969 40.941406 43.125 41.070312 43.125 41.257812 L 43.125 41.574219 L 44.378906 41.574219 L 44.378906 42.625 L 43.125 42.625 L 43.125 46.160156 L 41.660156 46.160156 L 41.660156 42.625 L 40.929688 42.625 L 40.929688 41.574219 L 41.660156 41.574219 L 41.660156 41.257812 C 41.660156 40.757812 41.800781 40.386719 42.078125 40.152344 C 42.355469 39.910156 42.789062 39.789062 43.371094 39.789062 L 44.492188 39.789062 "/>
<path style=" stroke:none;fill-rule:nonzero;fill:rgb(92.156863%,44.705882%,22.352941%);fill-opacity:1;" d="M 46.730469 40.273438 L 46.730469 41.574219 L 48.242188 41.574219 L 48.242188 42.625 L 46.730469 42.625 L 46.730469 44.570312 C 46.730469 44.78125 46.773438 44.925781 46.855469 45.003906 C 46.941406 45.078125 47.109375 45.113281 47.359375 45.113281 L 48.113281 45.113281 L 48.113281 46.160156 L 46.855469 46.160156 C 46.277344 46.160156 45.867188 46.042969 45.625 45.800781 C 45.382812 45.558594 45.261719 45.148438 45.261719 44.570312 L 45.261719 42.625 L 44.535156 42.625 L 44.535156 41.574219 L 45.261719 41.574219 L 45.261719 40.273438 L 46.730469 40.273438 "/>
<path style="fill-rule:nonzero;fill:rgb(0%,0%,0%);fill-opacity:1;stroke-width:4.944352;stroke-linecap:butt;stroke-linejoin:miter;stroke:rgb(0%,0%,0%);stroke-opacity:1;stroke-miterlimit:4;" d="M 674.361071 -578.539273 C 671.48066 -578.381442 670.336387 -577.316085 673.927036 -574.711877 C 690.696552 -566.97817 708.452509 -560.704398 723.485887 -550.050822 C 757.182748 -526.17892 778.884474 -491.574529 789.972082 -451.603892 C 796.443142 -428.2844 795.456699 -414.040175 799.284094 -390.602309 C 801.769928 -376.476457 808.872311 -357.931345 816.527101 -342.108812 C 826.865014 -316.974266 842.569172 -293.773146 858.352245 -277.003628 C 875.792541 -259.681704 904.280988 -240.11069 946.461252 -229.141452 C 963.980463 -225.235141 974.08163 -223.577917 978.737637 -223.656833 C 985.563816 -221.802321 993.218607 -221.605032 987.063208 -226.497786 C 969.543997 -235.533596 947.605525 -243.543507 935.413101 -255.183525 C 905.306889 -283.829807 884.118113 -318.157994 873.977489 -361.245788 C 870.110636 -377.58127 868.216668 -393.482718 866.717276 -407.174535 C 867.151311 -418.972383 868.492872 -431.243724 870.426299 -444.422591 C 872.635929 -462.060176 884.473235 -476.580604 895.560844 -487.747129 C 905.819842 -494.652224 914.421617 -497.729923 922.03695 -496.112158 C 933.400763 -493.547408 958.416934 -488.181162 972.384954 -487.786584 C 978.027403 -500.531417 965.756064 -518.011172 950.99889 -529.927394 C 977.001504 -543.264091 1001.741471 -549.301116 1015.117626 -553.286342 C 1025.652828 -556.521872 997.085465 -554.233327 982.486122 -551.786951 C 962.954568 -548.945998 945.198611 -547.170403 927.679399 -543.066804 C 914.263787 -549.695696 900.493055 -551.629123 887.47202 -550.169189 C 880.251264 -550.050816 871.846777 -548.511967 865.809751 -546.144506 C 848.527286 -539.357784 829.587597 -524.087661 823.23491 -509.60669 C 822.287926 -508.186213 821.301484 -506.213329 820.236126 -503.885326 C 815.06717 -512.17144 809.187975 -519.6684 802.835288 -525.902715 C 772.018838 -556.719169 729.522912 -561.927585 687.816141 -575.619404 C 684.698984 -577.316084 678.070093 -578.697104 674.361071 -578.539273 Z M 889.247615 -549.616781 C 896.66566 -549.616781 902.544855 -547.999016 902.821059 -544.132163 C 905.898758 -535.846048 887.62985 -528.1518 878.278379 -525.547593 C 866.796193 -522.509352 853.498954 -514.18378 845.055009 -506.450074 C 835.585165 -499.623895 824.181894 -482.538717 819.48643 -472.161346 C 801.92776 -440.831944 815.461746 -496.151619 824.063522 -509.014825 C 830.416209 -523.456338 849.355897 -538.765919 866.638363 -545.513183 C 872.951592 -548.038475 881.829571 -549.616782 889.247615 -549.616781 Z M 889.247615 -549.616781 " transform="matrix(0.0989985,-0.00000000342394,0.00000000147931,0.0989985,-60.256802,61.184653)"/>
</g>
</svg>
