<?xml version="1.0" encoding="UTF-8"?>
<svg xmlns="http://www.w3.org/2000/svg" xmlns:xlink="http://www.w3.org/1999/xlink" width="50pt" height="50pt" viewBox="0 0 50 50" version="1.1">
<g id="surface1">
<path style=" stroke:none;fill-rule:nonzero;fill:rgb(89.411765%,30.196078%,14.901961%);fill-opacity:1;" d="M 10.511719 45.984375 L 7.289062 9.828125 L 42.710938 9.828125 L 39.484375 45.976562 L 24.976562 50 Z M 10.511719 45.984375 "/>
<path style=" stroke:none;fill-rule:nonzero;fill:rgb(94.509804%,39.607843%,16.078431%);fill-opacity:1;" d="M 25 46.925781 L 36.722656 43.675781 L 39.480469 12.78125 L 25 12.78125 Z M 25 46.925781 "/>
<path style=" stroke:none;fill-rule:nonzero;fill:rgb(92.156863%,92.156863%,92.156863%);fill-opacity:1;" d="M 25 26.191406 L 19.132812 26.191406 L 18.726562 21.652344 L 25 21.652344 L 25 17.21875 L 13.878906 17.21875 L 13.984375 18.40625 L 15.078125 30.628906 L 25 30.628906 Z M 25 26.191406 "/>
<path style=" stroke:none;fill-rule:nonzero;fill:rgb(92.156863%,92.156863%,92.156863%);fill-opacity:1;" d="M 25 37.710938 L 24.980469 37.714844 L 20.042969 36.382812 L 19.726562 32.84375 L 15.273438 32.84375 L 15.894531 39.808594 L 24.980469 42.328125 L 25 42.324219 Z M 25 37.710938 "/>
<path style=" stroke:none;fill-rule:nonzero;fill:rgb(0%,0%,0%);fill-opacity:1;" d="M 10.585938 0 L 12.835938 0 L 12.835938 2.226562 L 14.898438 2.226562 L 14.898438 0 L 17.152344 0 L 17.152344 6.742188 L 14.898438 6.742188 L 14.898438 4.484375 L 12.835938 4.484375 L 12.835938 6.742188 L 10.585938 6.742188 Z M 10.585938 0 "/>
<path style=" stroke:none;fill-rule:nonzero;fill:rgb(0%,0%,0%);fill-opacity:1;" d="M 20.117188 2.234375 L 18.132812 2.234375 L 18.132812 0 L 24.355469 0 L 24.355469 2.234375 L 22.371094 2.234375 L 22.371094 6.742188 L 20.117188 6.742188 Z M 20.117188 2.234375 "/>
<path style=" stroke:none;fill-rule:nonzero;fill:rgb(0%,0%,0%);fill-opacity:1;" d="M 25.34375 0 L 27.691406 0 L 29.136719 2.367188 L 30.582031 0 L 32.933594 0 L 32.933594 6.742188 L 30.6875 6.742188 L 30.6875 3.402344 L 29.136719 5.796875 L 29.097656 5.796875 L 27.546875 3.402344 L 27.546875 6.742188 L 25.34375 6.742188 Z M 25.34375 0 "/>
<path style=" stroke:none;fill-rule:nonzero;fill:rgb(0%,0%,0%);fill-opacity:1;" d="M 34.054688 0 L 36.308594 0 L 36.308594 4.515625 L 39.476562 4.515625 L 39.476562 6.742188 L 34.054688 6.742188 Z M 34.054688 0 "/>
<path style=" stroke:none;fill-rule:nonzero;fill:rgb(100%,100%,100%);fill-opacity:1;" d="M 24.984375 26.191406 L 24.984375 30.628906 L 30.445312 30.628906 L 29.929688 36.378906 L 24.984375 37.714844 L 24.984375 42.328125 L 34.074219 39.808594 L 34.140625 39.058594 L 35.183594 27.382812 L 35.292969 26.191406 Z M 24.984375 26.191406 "/>
<path style=" stroke:none;fill-rule:nonzero;fill:rgb(100%,100%,100%);fill-opacity:1;" d="M 24.984375 17.21875 L 24.984375 21.652344 L 35.695312 21.652344 L 35.785156 20.65625 L 35.988281 18.40625 L 36.09375 17.21875 Z M 24.984375 17.21875 "/>
</g>
</svg>
