<?xml version="1.0" encoding="UTF-8"?>
<svg xmlns="http://www.w3.org/2000/svg" xmlns:xlink="http://www.w3.org/1999/xlink" width="50pt" height="50pt" viewBox="0 0 50 50" version="1.1">
<g id="surface1">
<path style=" stroke:none;fill-rule:nonzero;fill:rgb(0%,40%,60%);fill-opacity:1;" d="M 0 3.667969 C 0 1.699219 1.65625 0.101562 3.695312 0.101562 L 46.304688 0.101562 C 48.34375 0.101562 50 1.699219 50 3.667969 L 50 46.332031 C 50 48.304688 48.34375 49.898438 46.304688 49.898438 L 3.695312 49.898438 C 1.65625 49.898438 0 48.304688 0 46.332031 Z M 0 3.667969 "/>
<path style=" stroke:none;fill-rule:nonzero;fill:rgb(100%,100%,100%);fill-opacity:1;" d="M 15.195312 41.777344 L 15.195312 19.355469 L 7.710938 19.355469 L 7.710938 41.777344 Z M 11.453125 16.296875 C 14.0625 16.296875 15.6875 14.574219 15.6875 12.421875 C 15.640625 10.222656 14.0625 8.546875 11.503906 8.546875 C 8.945312 8.546875 7.269531 10.222656 7.269531 12.421875 C 7.269531 14.574219 8.894531 16.296875 11.40625 16.296875 Z M 19.335938 41.777344 L 26.816406 41.777344 L 26.816406 29.257812 C 26.816406 28.585938 26.867188 27.917969 27.0625 27.4375 C 27.605469 26.097656 28.835938 24.714844 30.902344 24.714844 C 33.609375 24.714844 34.691406 26.769531 34.691406 29.78125 L 34.691406 41.777344 L 42.175781 41.777344 L 42.175781 28.921875 C 42.175781 22.035156 38.484375 18.832031 33.5625 18.832031 C 29.527344 18.832031 27.753906 21.078125 26.769531 22.605469 L 26.816406 22.605469 L 26.816406 19.355469 L 19.335938 19.355469 C 19.433594 21.460938 19.335938 41.777344 19.335938 41.777344 Z M 19.335938 41.777344 "/>
</g>
</svg>
