<?xml version="1.0" encoding="UTF-8"?>
<svg xmlns="http://www.w3.org/2000/svg" xmlns:xlink="http://www.w3.org/1999/xlink" width="35pt" height="49pt" viewBox="0 0 35 49" version="1.1">
<g id="surface1">
<path style=" stroke:none;fill-rule:nonzero;fill:rgb(14.901961%,30.196078%,89.411765%);fill-opacity:1;" d="M 34.972656 9.628906 L 31.789062 45.058594 L 17.464844 49 L 3.183594 45.0625 L 0 9.628906 Z M 34.972656 9.628906 "/>
<path style=" stroke:none;fill-rule:nonzero;fill:rgb(16.078431%,39.607843%,94.509804%);fill-opacity:1;" d="M 29.058594 42.804688 L 31.78125 12.527344 L 17.488281 12.527344 L 17.488281 45.988281 Z M 29.058594 42.804688 "/>
<path style=" stroke:none;fill-rule:nonzero;fill:rgb(92.156863%,92.156863%,92.156863%);fill-opacity:1;" d="M 7.296875 25.667969 L 7.6875 30.015625 L 17.488281 30.015625 L 17.488281 25.667969 Z M 7.296875 25.667969 "/>
<path style=" stroke:none;fill-rule:nonzero;fill:rgb(92.156863%,92.156863%,92.156863%);fill-opacity:1;" d="M 17.488281 16.871094 L 6.507812 16.871094 L 6.90625 21.21875 L 17.488281 21.21875 Z M 17.488281 16.871094 "/>
<path style=" stroke:none;fill-rule:nonzero;fill:rgb(92.156863%,92.156863%,92.156863%);fill-opacity:1;" d="M 17.488281 41.476562 L 17.488281 36.957031 L 17.46875 36.960938 L 12.589844 35.652344 L 12.28125 32.1875 L 7.882812 32.1875 L 8.5 39.011719 L 17.46875 41.484375 Z M 17.488281 41.476562 "/>
<path style=" stroke:none;fill-rule:nonzero;fill:rgb(0%,0%,0%);fill-opacity:1;" d="M 8.230469 0 L 13.535156 0 L 13.535156 2.199219 L 10.449219 2.199219 L 10.449219 4.402344 L 13.535156 4.402344 L 13.535156 6.601562 L 8.230469 6.601562 Z M 8.230469 0 "/>
<path style=" stroke:none;fill-rule:nonzero;fill:rgb(0%,0%,0%);fill-opacity:1;" d="M 14.59375 0 L 19.898438 0 L 19.898438 1.914062 L 16.8125 1.914062 L 16.8125 2.296875 L 19.898438 2.296875 L 19.898438 6.699219 L 14.59375 6.699219 L 14.59375 4.6875 L 17.679688 4.6875 L 17.679688 4.304688 L 14.59375 4.304688 Z M 14.59375 0 "/>
<path style=" stroke:none;fill-rule:nonzero;fill:rgb(0%,0%,0%);fill-opacity:1;" d="M 20.957031 0 L 26.261719 0 L 26.261719 1.914062 L 23.175781 1.914062 L 23.175781 2.296875 L 26.261719 2.296875 L 26.261719 6.699219 L 20.957031 6.699219 L 20.957031 4.6875 L 24.042969 4.6875 L 24.042969 4.304688 L 20.957031 4.304688 Z M 20.957031 0 "/>
<path style=" stroke:none;fill-rule:nonzero;fill:rgb(100%,100%,100%);fill-opacity:1;" d="M 22.863281 30.015625 L 22.355469 35.652344 L 17.472656 36.960938 L 17.472656 41.480469 L 26.449219 39.011719 L 26.515625 38.277344 L 27.542969 26.835938 L 27.648438 25.667969 L 28.441406 16.871094 L 17.472656 16.871094 L 17.472656 21.21875 L 23.640625 21.21875 L 23.242188 25.667969 L 17.472656 25.667969 L 17.472656 30.015625 Z M 22.863281 30.015625 "/>
</g>
</svg>
