<?xml version="1.0" encoding="UTF-8"?>
<svg xmlns="http://www.w3.org/2000/svg" xmlns:xlink="http://www.w3.org/1999/xlink" width="89pt" height="49pt" viewBox="0 0 89 49" version="1.1">
<g id="surface1">
<path style=" stroke:none;fill-rule:evenodd;fill:rgb(53.72549%,57.647059%,74.509804%);fill-opacity:1;" d="M 87.699219 24.1875 C 87.699219 10.832031 68.066406 0 43.851562 0 C 19.632812 0 0 10.832031 0 24.1875 C 0 37.546875 19.632812 48.375 43.851562 48.375 C 68.066406 48.375 87.699219 37.546875 87.699219 24.1875 Z M 87.699219 24.1875 "/>
<path style=" stroke:none;fill-rule:evenodd;fill:rgb(13.72549%,14.509804%,19.215686%);fill-opacity:1;" d="M 12.3125 38.507812 L 17.121094 12.734375 L 28.238281 12.734375 C 33.039062 13.046875 35.4375 15.589844 35.4375 20.046875 C 35.4375 27.691406 29.730469 32.144531 24.632812 31.828125 L 19.222656 31.828125 L 18.019531 38.507812 Z M 20.425781 27.050781 L 21.929688 17.5 L 25.839844 17.5 C 27.929688 17.5 29.425781 18.457031 29.425781 20.363281 C 29.132812 25.78125 26.730469 26.734375 24.023438 27.050781 Z M 34.324219 31.828125 L 39.132812 6.046875 L 44.839844 6.046875 L 43.632812 12.734375 L 49.042969 12.734375 C 53.851562 13.046875 55.644531 15.589844 55.050781 18.773438 L 52.945312 31.828125 L 46.941406 31.828125 L 49.042969 20.046875 C 49.34375 18.457031 49.34375 17.5 47.246094 17.5 L 42.734375 17.5 L 40.03125 31.828125 Z M 52.558594 38.507812 L 57.367188 12.734375 L 68.484375 12.734375 C 73.289062 13.046875 75.691406 15.589844 75.691406 20.046875 C 75.691406 27.691406 69.976562 32.144531 64.875 31.828125 L 59.46875 31.828125 L 58.273438 38.507812 Z M 60.667969 27.050781 L 62.175781 17.5 L 66.074219 17.5 C 68.183594 17.5 69.683594 18.457031 69.683594 20.363281 C 69.378906 25.78125 66.980469 26.734375 64.277344 27.050781 Z M 60.667969 27.050781 "/>
</g>
</svg>
