<?xml version="1.0" encoding="UTF-8"?>
<svg xmlns="http://www.w3.org/2000/svg" xmlns:xlink="http://www.w3.org/1999/xlink" width="50pt" height="50pt" viewBox="0 0 50 50" version="1.1">
<defs>
<linearGradient id="linear0" gradientUnits="userSpaceOnUse" x1="0.5" y1="0" x2="0.5" y2="1" gradientTransform="matrix(50,0,0,50,0,0)">
<stop offset="0" style="stop-color:rgb(0%,56.862745%,90.196078%);stop-opacity:1;"/>
<stop offset="1" style="stop-color:rgb(0%,47.45098%,74.901961%);stop-opacity:1;"/>
</linearGradient>
</defs>
<g id="surface1">
<path style=" stroke:none;fill-rule:nonzero;fill:url(#linear0);" d="M 4.882812 0 L 45.117188 0 C 47.8125 0 50 2.1875 50 4.882812 L 50 45.117188 C 50 47.8125 47.8125 50 45.117188 50 L 4.882812 50 C 2.1875 50 0 47.8125 0 45.117188 L 0 4.882812 C 0 2.1875 2.1875 0 4.882812 0 Z M 4.882812 0 "/>
<path style=" stroke:none;fill-rule:nonzero;fill:rgb(100%,100%,100%);fill-opacity:1;" d="M 30.59375 6.5 L 41.15625 6.5 C 42.449219 6.5 43.5 7.550781 43.5 8.84375 L 43.5 26.03125 C 43.5 27.324219 42.449219 28.375 41.15625 28.375 L 30.59375 28.375 C 29.300781 28.375 28.25 27.324219 28.25 26.03125 L 28.25 8.84375 C 28.25 7.550781 29.300781 6.5 30.59375 6.5 Z M 30.59375 6.5 "/>
<path style=" stroke:none;fill-rule:nonzero;fill:rgb(100%,100%,100%);fill-opacity:1;" d="M 8.84375 6.5 L 19.40625 6.5 C 20.699219 6.5 21.75 7.550781 21.75 8.84375 L 21.75 38.53125 C 21.75 39.824219 20.699219 40.875 19.40625 40.875 L 8.84375 40.875 C 7.550781 40.875 6.5 39.824219 6.5 38.53125 L 6.5 8.84375 C 6.5 7.550781 7.550781 6.5 8.84375 6.5 Z M 8.84375 6.5 "/>
</g>
</svg>
